<svg id="visual" viewBox="0 0 1920 1080" width="1920" height="1080" xmlns="http://www.w3.org/2000/svg" xmlns:xlink="http://www.w3.org/1999/xlink" version="1.1"><rect width="1920" height="1080" fill="#001829"></rect><g><g transform="translate(1656 554)"><path d="M0 -128.7L100.6 -80.3L125.5 28.6L55.9 116L-55.9 116L-125.5 28.6L-100.6 -80.3Z" fill="#297EA6"></path></g><g transform="translate(406 404)"><path d="M0 -75L58.6 -46.8L73.1 16.7L32.5 67.6L-32.5 67.6L-73.1 16.7L-58.6 -46.8Z" fill="#297EA6"></path></g><g transform="translate(475 27)"><path d="M0 -48L37.5 -29.9L46.8 10.7L20.8 43.2L-20.8 43.2L-46.8 10.7L-37.5 -29.9Z" fill="#297EA6"></path></g><g transform="translate(59 179)"><path d="M0 -25L19.5 -15.6L24.4 5.6L10.8 22.5L-10.8 22.5L-24.4 5.6L-19.5 -15.6Z" fill="#297EA6"></path></g><g transform="translate(1002 575)"><path d="M0 -45L35.2 -28.1L43.9 10L19.5 40.5L-19.5 40.5L-43.9 10L-35.2 -28.1Z" fill="#297EA6"></path></g><g transform="translate(1861 711)"><path d="M0 -28L21.9 -17.5L27.3 6.2L12.1 25.2L-12.1 25.2L-27.3 6.2L-21.9 -17.5Z" fill="#297EA6"></path></g><g transform="translate(855 248)"><path d="M0 -30L23.5 -18.7L29.2 6.7L13 27L-13 27L-29.2 6.7L-23.5 -18.7Z" fill="#297EA6"></path></g><g transform="translate(158 873)"><path d="M0 -64L50 -39.9L62.4 14.2L27.8 57.7L-27.8 57.7L-62.4 14.2L-50 -39.9Z" fill="#297EA6"></path></g><g transform="translate(1676 97)"><path d="M0 -17L13.3 -10.6L16.6 3.8L7.4 15.3L-7.4 15.3L-16.6 3.8L-13.3 -10.6Z" fill="#297EA6"></path></g><g transform="translate(678 840)"><path d="M0 -60L46.9 -37.4L58.5 13.4L26 54.1L-26 54.1L-58.5 13.4L-46.9 -37.4Z" fill="#297EA6"></path></g><g transform="translate(1901 1071)"><path d="M0 -51L39.9 -31.8L49.7 11.3L22.1 45.9L-22.1 45.9L-49.7 11.3L-39.9 -31.8Z" fill="#297EA6"></path></g><g transform="translate(1319 971)"><path d="M0 -53L41.4 -33L51.7 11.8L23 47.8L-23 47.8L-51.7 11.8L-41.4 -33Z" fill="#297EA6"></path></g><g transform="translate(217 608)"><path d="M0 -65L50.8 -40.5L63.4 14.5L28.2 58.6L-28.2 58.6L-63.4 14.5L-50.8 -40.5Z" fill="#297EA6"></path></g><g transform="translate(1478 739)"><path d="M0 -16L12.5 -10L15.6 3.6L6.9 14.4L-6.9 14.4L-15.6 3.6L-12.5 -10Z" fill="#297EA6"></path></g><g transform="translate(1378 498)"><path d="M0 -24L18.8 -15L23.4 5.3L10.4 21.6L-10.4 21.6L-23.4 5.3L-18.8 -15Z" fill="#297EA6"></path></g><g transform="translate(1156 180)"><path d="M0 -79L61.8 -49.3L77 17.6L34.3 71.2L-34.3 71.2L-77 17.6L-61.8 -49.3Z" fill="#297EA6"></path></g><g transform="translate(1919 347)"><path d="M0 -26L20.3 -16.2L25.3 5.8L11.3 23.4L-11.3 23.4L-25.3 5.8L-20.3 -16.2Z" fill="#297EA6"></path></g><g transform="translate(893 1076)"><path d="M0 -46L36 -28.7L44.8 10.2L20 41.4L-20 41.4L-44.8 10.2L-36 -28.7Z" fill="#297EA6"></path></g><g transform="translate(1425 4)"><path d="M0 -45L35.2 -28.1L43.9 10L19.5 40.5L-19.5 40.5L-43.9 10L-35.2 -28.1Z" fill="#297EA6"></path></g><g transform="translate(1662 922)"><path d="M0 -36L28.1 -22.4L35.1 8L15.6 32.4L-15.6 32.4L-35.1 8L-28.1 -22.4Z" fill="#297EA6"></path></g><g transform="translate(645 530)"><path d="M0 -112L87.6 -69.8L109.2 24.9L48.6 100.9L-48.6 100.9L-109.2 24.9L-87.6 -69.8Z" fill="#297EA6"></path></g><g transform="translate(1101 821)"><path d="M0 -59L46.1 -36.8L57.5 13.1L25.6 53.2L-25.6 53.2L-57.5 13.1L-46.1 -36.8Z" fill="#297EA6"></path></g><g transform="translate(451 986)"><path d="M0 -65L50.8 -40.5L63.4 14.5L28.2 58.6L-28.2 58.6L-63.4 14.5L-50.8 -40.5Z" fill="#297EA6"></path></g></g></svg>